<svg width="71" height="73" viewBox="0 0 71 73" fill="none" xmlns="http://www.w3.org/2000/svg">
<g clip-path="url(#clip0_10592_20511)">
<path d="M12.7785 72.9168C11.9023 72.9168 11.2927 72.575 10.9118 72.2711C9.19746 70.866 9.12127 67.7139 9.04507 64.068C9.00698 61.8274 8.93079 59.4728 8.47364 57.9916C7.94029 56.3586 6.9498 54.3078 5.88311 52.1431C2.60687 45.535 -1.3932 37.2939 2.49258 30.6099C2.87354 29.9263 3.74974 29.6985 4.43547 30.0782C5.1212 30.458 5.34977 31.3315 4.96881 32.0151C1.84495 37.4079 5.50216 44.8894 8.43554 50.9278C9.54032 53.2065 10.607 55.3332 11.1784 57.1561C11.788 59.017 11.8642 61.5615 11.9023 64.0301C11.9404 66.2327 12.0166 69.5368 12.7404 70.1064C15.3309 69.7267 16.8547 66.0808 18.1881 62.8907C19.7119 59.2449 21.1215 55.8269 24.131 55.8269C27.1406 55.8269 28.5883 59.2449 30.074 62.8907C31.4074 66.0808 32.8931 69.6887 35.255 70.1064C36.2836 69.4988 36.3598 66.1188 36.3979 63.8781C36.4741 61.4856 36.5122 58.979 37.0836 57.1561C37.6551 55.3332 38.6837 53.2065 39.7885 50.9658C40.7028 49.1429 41.6171 47.244 42.4171 45.2692C42.7218 44.5476 43.5219 44.2058 44.2457 44.5097C44.9695 44.8135 45.3124 45.611 45.0076 46.3326C44.1695 48.3834 43.2171 50.3202 42.3028 52.2191C41.2361 54.3458 40.2456 56.3586 39.7504 57.9916C39.2932 59.4348 39.2551 61.7134 39.1789 63.9541C39.1027 67.6759 39.0265 70.866 37.2741 72.2711C36.7789 72.6509 35.9408 73.0687 34.7217 72.8788C30.874 72.2332 29.0454 67.8278 27.4454 63.9541C26.4549 61.5995 25.2358 58.6373 24.093 58.6373C22.9501 58.6373 21.731 61.5995 20.7405 63.9541C19.1405 67.8278 17.3119 72.1952 13.4261 72.8788C13.1975 72.9168 12.969 72.9168 12.7785 72.9168ZM44.9314 43.8261C44.779 43.8261 44.6647 43.8261 44.5123 43.7501C43.7504 43.5222 43.3314 42.7247 43.56 42.0031C45.3505 36.1166 44.4743 32.167 40.7028 29.1668C37.5027 26.6603 31.6359 26.8122 26.9501 27.8755C28.093 28.4072 29.2359 29.0149 30.4169 29.6605C31.1026 30.0403 31.3312 30.9137 30.9502 31.5973C30.5693 32.2809 29.693 32.5088 29.0073 32.129C20.5119 27.2679 11.7118 26.0146 7.63553 29.0528C7.02599 29.5086 6.11169 29.3946 5.65454 28.749C5.19739 28.1414 5.31168 27.2299 5.95931 26.7742C9.7308 23.9639 15.9023 23.8499 22.7596 26.1666C28.0549 24.2297 37.3503 22.9005 42.4933 26.9641C47.141 30.6479 48.3981 35.8508 46.3029 42.8007C46.0743 43.4083 45.5028 43.8261 44.9314 43.8261Z" fill="#373737"/>
<path d="M19.0262 20.6597C16.4357 20.6597 14.0356 18.9507 13.3118 16.3683L12.8928 14.4694C12.7023 13.7098 13.1975 12.9503 13.9595 12.7984C14.7214 12.6085 15.4833 13.1022 15.6357 13.8617L16.0547 15.6847C16.4738 17.2038 18.15 18.1912 19.75 17.7734L22.8739 16.9379C24.4739 16.5581 25.4263 14.8871 25.0073 13.2541L23.5215 7.48154L14.6071 9.72221C14.7595 10.4818 14.2261 11.3173 13.4642 11.4692C12.7023 11.6211 11.9404 11.2033 11.788 10.4438C11.4832 8.84873 12.4356 7.29165 13.9595 6.98783L22.7215 4.74716C23.4453 4.5193 24.2834 4.63323 24.9692 5.01301C25.6549 5.39278 26.112 6.0384 26.2644 6.75997L27.7502 12.5325C28.5121 15.6847 26.6454 18.8748 23.5596 19.6343L20.4358 20.5078C19.9786 20.6217 19.4834 20.6597 19.0262 20.6597Z" fill="#373737"/>
<path d="M22.6453 23.8499C22.0358 23.8499 21.4643 23.4321 21.2739 22.7865L20.2834 19.0647C20.0929 18.3052 20.5119 17.5456 21.2739 17.3558C22.0358 17.1659 22.7977 17.5836 22.9882 18.3432L23.9787 22.065C24.1691 22.8245 23.7501 23.5841 22.9882 23.7739C22.8739 23.8499 22.7596 23.8499 22.6453 23.8499Z" fill="#373737"/>
<path d="M29.5407 10.1779C28.855 10.1779 28.2454 9.64626 28.1311 8.92468C28.0549 8.16514 28.5883 7.44356 29.3502 7.36761L46.7981 5.2029C47.56 5.08896 48.2839 5.65862 48.3601 6.41817C48.4363 7.17772 47.9029 7.89929 47.141 7.97525L29.6931 10.14C29.655 10.1779 29.6169 10.1779 29.5407 10.1779Z" fill="#373737"/>
<path d="M48.8934 15.4948C48.8553 15.4948 48.8553 15.4948 48.8172 15.4948L26.3025 14.3175C25.5025 14.2796 24.9311 13.596 24.9692 12.8364C25.0073 12.0769 25.693 11.5072 26.4549 11.5072L48.9696 12.6845C49.7696 12.7225 50.341 13.4061 50.3029 14.1656C50.2648 14.9252 49.6553 15.4948 48.8934 15.4948Z" fill="#373737"/>
<path d="M48.8934 15.4948C48.2458 15.4948 47.6743 15.0771 47.5219 14.4314L45.6172 6.98787C45.4267 6.22832 45.8838 5.46877 46.6457 5.27888C47.4077 5.089 48.1696 5.54472 48.3601 6.30427L50.2649 13.7479C50.4553 14.5074 49.9982 15.2669 49.2363 15.4568C49.122 15.4948 49.0077 15.4948 48.8934 15.4948Z" fill="#373737"/>
<path d="M46.9886 8.05126C46.341 8.05126 45.7695 7.63351 45.6172 6.9879C45.4267 6.22835 45.8838 5.4688 46.6457 5.27891L66.9889 0.0760018C67.7509 -0.113885 68.5128 0.341844 68.7033 1.10139C68.8937 1.86094 68.4366 2.62049 67.6747 2.81038L47.3315 7.97531C47.2172 8.01329 47.1029 8.05126 46.9886 8.05126Z" fill="#373737"/>
<path d="M48.8933 15.4949C48.2838 15.4949 47.7124 15.0772 47.5219 14.4315C47.3314 13.672 47.7886 12.9124 48.5124 12.7226L68.8556 7.40571C69.6175 7.21583 70.3794 7.67156 70.5699 8.4311C70.7604 9.19065 70.3032 9.9502 69.5794 10.1401L49.2362 15.4569C49.1219 15.4949 49.0076 15.4949 48.8933 15.4949Z" fill="#373737"/>
<path d="M58.3792 12.9883C57.7316 12.9883 57.1602 12.5705 57.0078 11.9249L56.5125 9.87413C56.322 9.11458 56.8173 8.35503 57.5411 8.16514C58.303 7.97525 59.065 8.46896 59.2554 9.19053L59.7507 11.2793C59.9412 12.0388 59.4459 12.7984 58.7221 12.9883C58.6078 12.9883 58.4935 12.9883 58.3792 12.9883Z" fill="#373737"/>
<path d="M11.4451 32.6226H11.1784C10.3784 32.6226 9.76886 31.977 9.76886 31.2174C9.76886 30.4579 10.4165 29.8123 11.1784 29.8123C11.9784 29.8123 12.7022 30.4579 12.7022 31.2174C12.7022 32.0149 12.207 32.6226 11.4451 32.6226Z" fill="#373737"/>
<path d="M19.9024 32.6226H19.75C18.95 32.6226 18.3405 31.977 18.3405 31.2174C18.3405 30.4579 18.9881 29.8123 19.75 29.8123C20.55 29.8123 21.2357 30.4579 21.2357 31.2174C21.2357 32.0149 20.7024 32.6226 19.9024 32.6226Z" fill="#373737"/>
<path d="M36.9312 32.6226H36.7027C35.9027 32.6226 35.2931 31.977 35.2931 31.2174C35.2931 30.4579 35.9408 29.8123 36.7027 29.8123C37.5027 29.8123 38.2265 30.4579 38.2265 31.2174C38.2265 32.0149 37.7313 32.6226 36.9312 32.6226Z" fill="#373737"/>
<path d="M7.17839 37.7876H6.91171C6.1117 37.7876 5.50217 37.142 5.50217 36.3825C5.50217 35.6229 6.1498 34.9773 6.91171 34.9773C7.71173 34.9773 8.43555 35.6229 8.43555 36.3825C8.43555 37.142 7.9784 37.7876 7.17839 37.7876Z" fill="#373737"/>
<path d="M15.6738 37.7876H15.4071C14.6071 37.7876 13.9976 37.142 13.9976 36.3825C13.9976 35.6229 14.6452 34.9773 15.4071 34.9773C16.2071 34.9773 16.9309 35.6229 16.9309 36.3825C16.9309 37.142 16.4357 37.7876 15.6738 37.7876Z" fill="#373737"/>
<path d="M24.2072 37.7876H23.9406C23.1405 37.7876 22.531 37.142 22.531 36.3825C22.531 35.6229 23.1786 34.9773 23.9406 34.9773C24.7406 34.9773 25.4644 35.6229 25.4644 36.3825C25.4644 37.142 25.0072 37.7876 24.2072 37.7876Z" fill="#373737"/>
<path d="M32.7026 37.7876H32.4359C31.6359 37.7876 31.0264 37.142 31.0264 36.3825C31.0264 35.6229 31.674 34.9773 32.4359 34.9773C33.1979 34.9773 33.9598 35.6229 33.9598 36.3825C33.9598 37.142 33.4645 37.7876 32.7026 37.7876Z" fill="#373737"/>
<path d="M41.1599 37.7876H40.8932C40.0932 37.7876 39.4837 37.142 39.4837 36.3825C39.4837 35.6229 40.1313 34.9773 40.8932 34.9773C41.6932 34.9773 42.4171 35.6229 42.4171 36.3825C42.4171 37.142 41.9599 37.7876 41.1599 37.7876Z" fill="#373737"/>
<path d="M11.4451 42.8385H11.1784C10.3784 42.8385 9.76886 42.1929 9.76886 41.4334C9.76886 40.6738 10.4165 40.0282 11.1784 40.0282C11.9784 40.0282 12.7022 40.6738 12.7022 41.4334C12.7022 42.1929 12.207 42.8385 11.4451 42.8385Z" fill="#373737"/>
<path d="M19.9024 42.8385H19.75C18.95 42.8385 18.3405 42.1929 18.3405 41.4334C18.3405 40.6738 18.9881 40.0282 19.75 40.0282C20.55 40.0282 21.2357 40.6738 21.2357 41.4334C21.2357 42.1929 20.7024 42.8385 19.9024 42.8385Z" fill="#373737"/>
<path d="M28.474 42.8385H28.2073C27.4073 42.8385 26.7978 42.1929 26.7978 41.4334C26.7978 40.6738 27.4454 40.0282 28.2073 40.0282C29.0073 40.0282 29.7311 40.6738 29.7311 41.4334C29.7692 42.1929 29.2359 42.8385 28.474 42.8385Z" fill="#373737"/>
<path d="M36.9312 42.8385H36.7027C35.9027 42.8385 35.2931 42.1929 35.2931 41.4334C35.2931 40.6738 35.9408 40.0282 36.7027 40.0282C37.5027 40.0282 38.2265 40.6738 38.2265 41.4334C38.2265 42.1929 37.7313 42.8385 36.9312 42.8385Z" fill="#373737"/>
</g>
<defs>
<clipPath id="clip0_10592_20511">
<rect width="69.7917" height="72.9167" fill="white" transform="translate(0.892578)"/>
</clipPath>
</defs>
</svg>
